<svg width="16" height="16" viewBox="0 0 16 16" fill="none" xmlns="http://www.w3.org/2000/svg">
    <path
        d="M8.00308 15C8.15515 15 8.27266 14.9515 8.3556 14.8546C8.44316 14.7623 8.48694 14.64 8.48694 14.4876V12.9852L9.67583 13.6637C9.80025 13.7329 9.92238 13.7583 10.0422 13.7399C10.1666 13.7214 10.2657 13.6499 10.3394 13.5252C10.3993 13.4191 10.4108 13.306 10.374 13.186C10.3371 13.0659 10.2542 12.969 10.1251 12.8952L8.48694 11.9604V11.0811L8.34869 8.6093L10.4293 9.95945L11.1965 10.3956L11.1827 12.2859C11.1781 12.4382 11.2173 12.5628 11.3002 12.6597C11.3878 12.7521 11.4915 12.7982 11.6113 12.7982C11.7587 12.7982 11.8693 12.7498 11.943 12.6528C12.0214 12.5559 12.0606 12.4336 12.0606 12.2859L12.0675 10.9011L13.3739 11.6627C13.5075 11.7412 13.6342 11.7666 13.754 11.7389C13.8785 11.7066 13.9752 11.6281 14.0444 11.5035C14.1181 11.3742 14.1365 11.2473 14.0997 11.1227C14.0674 10.9934 13.9868 10.8942 13.8577 10.8249L12.5513 10.0702L13.7402 9.37092C13.8646 9.29245 13.9499 9.19782 13.996 9.08704C14.0421 8.97626 14.0282 8.85856 13.9545 8.73393C13.8854 8.62315 13.7886 8.55621 13.6642 8.53314C13.5444 8.50544 13.4223 8.52852 13.2978 8.60237L11.6735 9.55786L10.9062 9.12166L8.67356 8L10.9131 6.87834L11.6666 6.43521L13.2909 7.3907C13.42 7.46456 13.5467 7.48994 13.6711 7.46686C13.8001 7.43917 13.8969 7.37224 13.9614 7.26607C14.0305 7.14144 14.0421 7.02374 13.996 6.91296C13.9499 6.79756 13.8646 6.70063 13.7402 6.62216L12.5513 5.92977L13.8577 5.17507C13.9914 5.0966 14.0743 4.99736 14.1066 4.87735C14.1434 4.75734 14.125 4.6304 14.0513 4.49654C13.9775 4.37191 13.8785 4.29575 13.754 4.26805C13.6342 4.23574 13.5098 4.25882 13.3808 4.33729L12.0675 5.08506L12.0536 3.70722C12.0536 3.55951 12.0168 3.4395 11.943 3.34718C11.8693 3.25025 11.761 3.20178 11.6182 3.20178C11.4891 3.20178 11.3832 3.25025 11.3002 3.34718C11.2173 3.4395 11.1781 3.55951 11.1827 3.70722L11.1896 5.5905L10.4293 6.03363L8.34869 7.3907L8.48694 4.91197V4.03264L10.1251 3.10485C10.2542 3.02638 10.3371 2.92944 10.374 2.81405C10.4108 2.69403 10.3993 2.57863 10.3394 2.46785C10.2657 2.34322 10.1666 2.27168 10.0422 2.25321C9.92238 2.23475 9.80025 2.26245 9.67583 2.3363L8.48694 3.01484V1.50544C8.48694 1.35773 8.44316 1.23772 8.3556 1.1454C8.27266 1.04847 8.15515 1 8.00308 1C7.86023 1 7.74503 1.04847 7.65747 1.1454C7.56992 1.23772 7.52614 1.35773 7.52614 1.50544V3.01484L6.3165 2.3363C6.18748 2.26245 6.06536 2.23475 5.95016 2.25321C5.83495 2.27168 5.73818 2.34322 5.65984 2.46785C5.59994 2.57863 5.58842 2.69403 5.62528 2.81405C5.66676 2.92944 5.75201 3.02407 5.88103 3.09792L7.52614 4.03264V4.91197L7.65747 7.3907L5.5769 6.03363L4.80964 5.5905L4.82347 3.70722C4.82808 3.55951 4.78891 3.4395 4.70596 3.34718C4.62301 3.25025 4.51933 3.20178 4.39491 3.20178C4.24284 3.20178 4.12994 3.25025 4.05621 3.34718C3.98248 3.4395 3.94562 3.55951 3.94562 3.70722L3.93871 5.08506L2.62539 4.33729C2.50097 4.26344 2.37425 4.24036 2.24522 4.26805C2.1208 4.29575 2.02403 4.37191 1.95491 4.49654C1.87657 4.6304 1.85583 4.75964 1.8927 4.88427C1.93417 5.00429 2.01942 5.10122 2.14845 5.17507L3.44794 5.92977L2.26595 6.62216C2.14153 6.70063 2.05628 6.79525 2.0102 6.90603C1.96412 7.0122 1.97564 7.13221 2.04476 7.26607C2.10467 7.37685 2.19683 7.44379 2.32125 7.46686C2.45028 7.48994 2.58161 7.46456 2.71525 7.3907L4.3327 6.44214L5.09304 6.87834L7.32568 8L5.09304 9.12166L4.3327 9.56479L2.70833 8.60237C2.57931 8.52852 2.45258 8.50544 2.32816 8.53314C2.20835 8.55621 2.11849 8.62084 2.05859 8.727C1.98486 8.86086 1.96873 8.98318 2.0102 9.09397C2.05628 9.20013 2.14153 9.29245 2.26595 9.37092L3.45485 10.0702L2.14845 10.8249C2.01942 10.8988 1.93647 10.998 1.89961 11.1227C1.86274 11.2473 1.88117 11.3719 1.95491 11.4965C2.02864 11.6304 2.12771 11.7112 2.25213 11.7389C2.37655 11.762 2.50097 11.7366 2.62539 11.6627L3.93871 10.9149L3.94562 12.2859C3.94562 12.4336 3.98248 12.5559 4.05621 12.6528C4.12994 12.7498 4.24054 12.7982 4.388 12.7982C4.51242 12.7982 4.6161 12.7521 4.69905 12.6597C4.7866 12.5628 4.82808 12.4382 4.82347 12.2859L4.81656 10.3956L5.5769 9.96637L7.65747 8.6093L7.52614 11.0811V11.9604L5.88103 12.8952C5.75201 12.969 5.66676 13.0659 5.62528 13.186C5.58842 13.306 5.59994 13.4191 5.65984 13.5252C5.73818 13.6499 5.83495 13.7214 5.95016 13.7399C6.06536 13.7583 6.18748 13.7329 6.3165 13.6637L7.52614 12.9782V14.4876C7.52614 14.64 7.56992 14.7623 7.65747 14.8546C7.74503 14.9515 7.86023 15 8.00308 15Z"
        fill="#26B1FF" />
</svg>