<svg width="16" height="16" viewBox="0 0 16 16" fill="none" xmlns="http://www.w3.org/2000/svg">
    <path
        d="M10.5288 3.35892C9.84046 2.7632 9.12921 2.1476 8.40994 1.41508L8.0004 1L7.5989 1.41566C6.30604 2.73806 5.69461 4.76902 5.42961 5.98736C5.22627 5.66644 5.07537 5.31401 4.98279 4.94382L4.73787 3.9868L4.03065 4.6632C2.79228 5.8488 1.96575 7.02446 1.96575 8.90692C1.95385 10.2653 2.38766 11.5888 3.19826 12.6671C5.43097 15.6371 10.0304 15.7822 12.4711 13.0399C13.478 11.9086 14.0354 10.4356 14.0345 8.90809C14.0345 6.39308 12.4095 4.98708 10.5288 3.35892Z"
        fill="url(#paint0_linear_225_8)" />
    <defs>
        <linearGradient id="paint0_linear_225_8" x1="8" y1="1" x2="8" y2="15" gradientUnits="userSpaceOnUse">
            <stop stop-color="#EC9F05" />
            <stop offset="1" stop-color="#E73827" />
        </linearGradient>
    </defs>
</svg>